<?xml version="1.0" standalone="no"?>
<!DOCTYPE svg PUBLIC "-//W3C//DTD SVG 20010904//EN"
 "http://www.w3.org/TR/2001/REC-SVG-20010904/DTD/svg10.dtd">
<svg version="1.0" xmlns="http://www.w3.org/2000/svg"
 width="500.000000pt" height="500.000000pt" viewBox="0 0 500.000000 500.000000"
 preserveAspectRatio="xMidYMid meet">
<metadata>
Created by potrace 1.14, written by Peter Selinger 2001-2017
</metadata>
<g transform="translate(0.000000,500.000000) scale(0.100000,-0.100000)"
fill="#000000" stroke="none">
<path d="M1666 3520 c-42 -13 -73 -53 -91 -119 -9 -31 -22 -78 -31 -106 -8
-27 -77 -282 -154 -565 -77 -283 -143 -522 -146 -532 -5 -17 3 -18 142 -16
l147 3 27 100 c15 55 63 231 106 390 42 160 81 294 85 299 5 5 11 1 15 -10 4
-10 20 -47 35 -82 16 -35 29 -65 29 -67 0 -3 13 -33 29 -67 15 -35 56 -128 90
-208 124 -288 139 -317 175 -345 60 -45 141 -38 194 16 16 17 42 60 58 97 15
37 40 94 55 127 14 33 57 130 94 215 137 316 149 343 152 334 5 -16 74 -269
78 -284 6 -25 83 -308 113 -415 l28 -100 147 -3 c115 -2 146 0 142 10 -6 20
-207 761 -210 779 -2 9 -13 49 -25 89 -12 40 -23 80 -25 89 -13 70 -81 292
-97 319 -37 61 -136 79 -197 35 -39 -28 -64 -82 -343 -730 -34 -79 -64 -143
-67 -143 -4 0 -12 12 -18 28 -246 564 -347 791 -359 810 -18 28 -88 62 -124
61 -14 0 -38 -5 -54 -9z"/>
<path d="M2930 3503 c0 -3 62 -228 76 -274 4 -14 25 -16 152 -16 83 1 148 -3
149 -9 1 -5 -44 -65 -100 -133 -56 -68 -106 -129 -110 -137 -4 -7 -1 -40 8
-71 9 -32 21 -76 26 -98 21 -89 52 -176 59 -168 7 8 77 95 137 169 17 21 117
143 221 270 104 127 192 239 197 250 36 84 12 163 -60 199 -37 18 -63 20 -397
20 -197 1 -358 0 -358 -2z"/>
<path d="M2590 2328 c-63 -77 -116 -143 -118 -147 -1 -5 69 -8 158 -8 113 1
160 4 160 12 0 20 -70 269 -78 276 -4 3 -59 -56 -122 -133z"/>
<path d="M3729 1733 c-64 -27 -94 -91 -74 -160 15 -50 32 -68 80 -88 19 -9 35
-18 35 -20 0 -3 -11 -22 -23 -43 -13 -20 -31 -51 -40 -68 l-16 -30 40 0 40 1
71 120 c62 104 71 126 71 167 0 56 -30 102 -79 123 -39 16 -63 16 -105 -2z
m109 -95 c22 -46 -18 -99 -68 -89 -40 8 -64 64 -42 97 26 39 89 34 110 -8z"/>
<path d="M3179 1733 c-1 -5 -2 -20 -3 -35 l-3 -28 94 0 c51 0 93 -3 93 -6 0
-6 -33 -67 -115 -214 -68 -120 -69 -124 -26 -125 39 -1 37 -3 152 205 95 173
93 166 69 190 -18 18 -34 20 -140 20 -66 0 -120 -3 -121 -7z"/>
<path d="M4102 1703 l3 -36 88 2 c51 1 87 -2 87 -7 0 -6 -16 -39 -36 -74 -20
-34 -54 -97 -76 -138 -22 -41 -47 -85 -54 -97 -16 -25 -10 -31 26 -29 39 2 45
10 102 114 29 53 63 115 76 137 64 114 67 122 47 145 -16 18 -30 20 -142 20
l-124 0 3 -37z"/>
<path d="M768 1615 c-16 -9 -28 -11 -28 -5 0 5 -16 10 -35 10 l-35 0 0 -145
c0 -80 3 -145 8 -146 4 -1 19 -2 35 -3 l27 -3 0 103 c0 99 1 104 25 120 31 21
63 10 72 -24 4 -15 6 -64 6 -109 -1 -46 2 -83 5 -84 40 -6 62 -4 63 5 1 6 2
53 3 104 1 80 4 96 21 108 25 19 41 18 63 -4 15 -15 18 -34 17 -115 -1 -53 1
-98 4 -98 28 -7 52 -4 60 5 14 16 6 216 -9 247 -23 49 -81 62 -142 30 -31 -15
-39 -16 -50 -4 -22 21 -79 25 -110 8z"/>
<path d="M1375 1623 c-110 -30 -146 -186 -60 -262 56 -48 136 -53 199 -12 l29
19 -34 15 c-19 7 -51 12 -72 9 -37 -4 -87 17 -87 37 0 5 43 9 95 8 128 -3 139
2 132 55 -10 73 -67 128 -138 133 -24 2 -53 1 -64 -2z m110 -94 c19 -19 19
-19 -58 -19 -75 0 -90 7 -64 28 32 26 90 22 122 -9z"/>
<path d="M1759 1608 c0 -10 -1 -70 -1 -133 0 -63 1 -123 1 -133 1 -13 9 -18
34 -17 l32 1 2 89 c2 50 5 100 8 111 6 28 43 37 72 19 20 -14 23 -24 25 -117
l3 -102 28 -1 c15 -1 30 2 33 6 3 5 5 51 5 103 0 99 7 116 49 123 44 7 54 -28
51 -174 -1 -29 2 -53 7 -54 49 -7 62 -5 63 10 7 89 -2 213 -16 240 -26 52 -85
65 -145 32 -35 -18 -36 -18 -59 0 -28 23 -52 24 -91 4 -17 -9 -30 -11 -30 -6
0 5 -16 11 -35 13 -28 3 -35 1 -36 -14z"/>
<path d="M2456 1620 c-42 -13 -85 -58 -97 -103 -23 -86 18 -161 106 -193 35
-13 117 3 142 29 14 14 13 16 -8 27 -12 7 -46 12 -74 11 -39 -1 -57 4 -73 19
-12 12 -22 22 -22 24 0 2 49 3 108 3 60 0 113 3 120 6 14 10 6 73 -15 108 -36
61 -118 91 -187 69z m95 -76 c48 -24 34 -34 -48 -34 l-78 1 25 22 c31 27 64
31 101 11z"/>
<path d="M2948 1614 c-16 -8 -28 -10 -28 -4 0 5 -16 10 -35 10 l-35 0 0 -149
0 -148 33 1 32 1 2 75 c2 94 14 125 57 151 27 16 34 26 33 47 -3 32 -22 37
-59 16z"/>
</g>
</svg>
