<?xml version="1.0" standalone="no"?>
<!DOCTYPE svg PUBLIC "-//W3C//DTD SVG 20010904//EN"
 "http://www.w3.org/TR/2001/REC-SVG-20010904/DTD/svg10.dtd">
<svg version="1.0" xmlns="http://www.w3.org/2000/svg"
 width="3464.000000pt" height="3464.000000pt" viewBox="0 0 3464.000000 3464.000000"
 preserveAspectRatio="xMidYMid meet">
<metadata>
Created by potrace 1.14, written by Peter Selinger 2001-2017
</metadata>
<g transform="translate(0.000000,3464.000000) scale(0.100000,-0.100000)"
fill="#000000" stroke="none">
<path d="M19250 23511 c0 -4 -39 -11 -87 -15 -107 -8 -215 -26 -227 -38 -6 -4
-21 -8 -33 -8 -13 0 -34 -6 -46 -14 -12 -7 -44 -19 -72 -26 -27 -8 -52 -17
-55 -21 -8 -12 -80 -49 -94 -49 -8 0 -16 -7 -20 -15 -3 -8 -11 -15 -19 -15 -7
0 -40 -25 -72 -55 -33 -30 -63 -55 -67 -55 -10 0 -48 -38 -48 -48 0 -4 -25
-33 -55 -65 -30 -31 -55 -62 -55 -69 0 -6 -7 -18 -15 -27 -27 -28 -64 -84 -87
-133 -12 -27 -25 -48 -30 -48 -4 0 -8 -6 -8 -13 0 -17 -49 -115 -61 -123 -5
-3 -9 -16 -9 -29 0 -14 -9 -40 -20 -60 -11 -20 -20 -42 -20 -49 0 -8 -7 -16
-15 -20 -8 -3 -15 -14 -15 -25 0 -11 -4 -23 -10 -26 -5 -3 -10 -17 -10 -30 0
-13 -4 -27 -10 -30 -5 -3 -10 -15 -10 -25 0 -10 -3 -20 -7 -22 -12 -5 -43 -76
-43 -98 0 -11 -4 -20 -10 -20 -5 0 -10 -9 -10 -20 0 -11 -4 -20 -10 -20 -5 0
-10 -6 -10 -13 0 -13 -19 -59 -41 -99 -5 -10 -9 -25 -9 -33 0 -8 -4 -15 -10
-15 -5 0 -10 -6 -10 -13 0 -18 -28 -75 -41 -82 -5 -4 -9 -16 -9 -29 0 -23 -45
-122 -61 -132 -5 -3 -9 -18 -9 -35 0 -16 -4 -29 -10 -29 -5 0 -10 -9 -10 -19
0 -11 -4 -23 -10 -26 -5 -3 -10 -15 -10 -25 0 -10 -3 -20 -7 -22 -11 -4 -43
-67 -43 -81 0 -7 -16 -45 -35 -84 -19 -40 -35 -82 -35 -93 0 -11 -4 -20 -10
-20 -5 0 -10 -6 -10 -14 0 -8 -9 -31 -19 -53 -11 -21 -27 -56 -37 -78 -33 -80
-65 -145 -75 -150 -5 -4 -9 -17 -9 -30 0 -13 -16 -53 -35 -89 -19 -37 -35 -73
-35 -80 0 -8 -13 -38 -28 -67 -15 -30 -36 -76 -46 -104 -10 -27 -23 -54 -27
-59 -5 -6 -9 -18 -9 -28 0 -10 -4 -18 -10 -18 -5 0 -10 -6 -10 -14 0 -8 -6
-27 -14 -43 -8 -15 -19 -39 -24 -53 -5 -14 -22 -52 -37 -85 -15 -33 -30 -69
-35 -80 -23 -57 -62 -135 -71 -140 -5 -4 -9 -17 -9 -30 0 -13 -16 -53 -35 -89
-19 -37 -35 -73 -35 -81 0 -8 -9 -30 -20 -50 -11 -20 -20 -42 -20 -50 0 -8 -4
-15 -10 -15 -5 0 -10 -7 -10 -15 0 -15 -35 -96 -76 -177 -13 -27 -24 -57 -24
-68 0 -11 -4 -20 -10 -20 -5 0 -10 -6 -10 -13 0 -8 -11 -36 -25 -63 -14 -27
-25 -57 -25 -66 0 -10 -4 -18 -10 -18 -5 0 -10 -6 -10 -14 0 -8 -16 -44 -35
-80 -19 -37 -35 -72 -35 -79 0 -7 -16 -44 -35 -83 -19 -38 -35 -75 -35 -83 0
-7 -9 -30 -19 -50 -35 -66 -71 -151 -71 -166 0 -8 -4 -15 -10 -15 -5 0 -10 -6
-10 -13 0 -8 -11 -36 -25 -63 -14 -27 -25 -57 -25 -66 0 -10 -4 -18 -10 -18
-5 0 -10 -7 -10 -15 0 -8 -9 -30 -20 -50 -11 -20 -20 -42 -20 -50 0 -8 -16
-47 -36 -87 -20 -40 -42 -86 -49 -103 -7 -16 -23 -52 -35 -80 -12 -27 -26 -59
-30 -70 -11 -29 -60 -137 -71 -157 -5 -10 -9 -26 -9 -37 0 -10 -7 -24 -15 -31
-8 -7 -15 -18 -15 -24 0 -7 -16 -43 -35 -82 -19 -38 -35 -74 -35 -80 0 -7 -13
-38 -30 -69 -16 -31 -30 -68 -30 -80 0 -13 -4 -26 -9 -30 -11 -6 -47 -80 -87
-180 -15 -38 -36 -85 -46 -103 -10 -18 -18 -39 -18 -47 0 -7 -16 -44 -35 -81
-19 -37 -35 -73 -35 -80 0 -7 -16 -43 -35 -80 -19 -37 -35 -72 -35 -78 0 -6
-20 -52 -45 -101 -25 -50 -45 -97 -45 -106 0 -9 -16 -46 -35 -83 -19 -37 -35
-73 -35 -80 0 -8 -20 -53 -45 -102 -25 -48 -45 -93 -45 -100 0 -7 -16 -43 -35
-80 -19 -37 -35 -75 -35 -84 0 -10 -15 -44 -33 -77 -18 -32 -39 -78 -47 -103
-8 -25 -29 -73 -47 -108 -18 -35 -33 -69 -33 -76 0 -7 -16 -43 -35 -80 -19
-37 -35 -75 -35 -85 0 -19 -18 -41 -35 -41 -11 0 -85 147 -85 169 0 7 -16 42
-35 78 -19 36 -35 70 -35 75 0 10 -17 48 -71 162 -11 22 -19 43 -19 47 0 5
-16 43 -36 86 -20 43 -40 87 -44 98 -5 11 -24 54 -44 95 -20 41 -36 81 -36 87
0 7 -16 42 -35 79 -19 36 -35 73 -35 81 0 8 -15 43 -34 78 -18 34 -43 89 -55
121 -12 32 -29 72 -38 88 -28 55 -33 66 -33 75 0 6 -16 45 -36 88 -20 43 -40
87 -44 98 -4 11 -24 53 -44 94 -20 41 -36 80 -36 87 0 8 -16 43 -35 80 -19 36
-35 72 -35 79 0 7 -20 52 -45 101 -25 48 -45 93 -45 100 0 8 -16 45 -35 83
-19 37 -35 73 -35 79 0 16 -53 126 -62 130 -5 2 -8 12 -8 21 0 10 -20 59 -45
110 -25 50 -45 97 -45 104 0 7 -16 43 -35 80 -19 38 -35 77 -35 88 0 10 -4 19
-10 19 -5 0 -10 5 -10 10 0 6 -16 43 -35 83 -19 39 -35 75 -35 80 0 4 -16 40
-35 80 -19 39 -35 77 -35 84 0 6 -16 42 -35 79 -19 37 -35 72 -35 78 0 6 -20
52 -45 100 -25 49 -45 94 -45 100 0 6 -16 43 -35 81 -19 39 -35 80 -35 91 0
12 -7 24 -15 28 -8 3 -15 12 -15 20 0 9 -9 31 -20 51 -11 20 -20 42 -20 49 0
8 -5 16 -11 18 -5 2 -11 10 -13 18 -5 30 -30 90 -38 90 -4 0 -8 5 -8 11 0 6
-15 43 -33 83 l-34 72 -51 3 c-53 2 -70 -12 -29 -23 18 -5 19 -8 7 -15 -8 -5
-17 -8 -21 -5 -4 2 -10 -5 -14 -16 -5 -16 -15 -20 -46 -20 -32 0 -39 -3 -39
-20 0 -14 7 -20 21 -20 11 0 17 -4 14 -10 -3 -5 -24 -10 -46 -10 -21 0 -39 -4
-39 -10 0 -5 9 -10 20 -10 11 0 20 -4 20 -10 0 -6 -28 -10 -65 -10 -71 0 -84
-11 -32 -28 30 -9 29 -10 -26 -11 -49 -1 -58 -4 -55 -18 2 -9 14 -20 28 -24
16 -4 -1 -7 -47 -8 -60 -1 -71 -4 -67 -16 4 -10 20 -15 45 -15 21 0 39 -4 39
-10 0 -5 -20 -10 -45 -10 -51 0 -58 -11 -17 -27 23 -9 17 -11 -47 -12 -68 -1
-73 -2 -68 -21 3 -13 0 -20 -9 -20 -8 0 -14 9 -14 21 0 33 -24 16 -26 -18 -1
-23 4 -34 20 -41 18 -9 16 -11 -17 -11 -30 -1 -39 -6 -47 -26 -6 -15 -17 -25
-30 -25 -11 0 -20 -7 -20 -15 0 -9 9 -15 22 -15 12 0 18 -3 15 -7 -4 -3 -43
-6 -87 -5 -74 2 -80 0 -80 -18 0 -17 7 -20 42 -20 23 0 38 -3 35 -7 -4 -3 -23
-6 -42 -5 -25 1 -35 -3 -35 -14 0 -8 6 -14 14 -12 8 2 15 -1 15 -7 1 -5 -26
-11 -59 -13 -33 -2 -60 -7 -60 -12 0 -6 7 -10 15 -10 22 0 18 -17 -5 -23 -11
-3 -20 -12 -20 -21 0 -12 -14 -16 -67 -18 -69 -3 -98 -23 -52 -36 21 -6 19 -7
-14 -12 -47 -6 -49 -24 -2 -28 61 -5 38 -22 -30 -22 -50 0 -65 -3 -65 -14 0
-8 12 -17 28 -19 16 -2 9 -5 -20 -6 -53 -1 -67 -24 -25 -41 17 -7 7 -9 -40 -9
-64 -1 -93 -17 -52 -29 20 -6 16 -8 -20 -12 -45 -5 -71 -30 -32 -30 12 0 21
-4 21 -10 0 -5 -18 -10 -40 -10 -29 0 -40 -4 -40 -15 0 -8 7 -15 15 -15 8 0
15 -4 15 -10 0 -5 -18 -10 -40 -10 -43 0 -54 -18 -17 -28 15 -5 1 -9 -42 -12
-39 -3 -66 -10 -69 -17 -2 -8 5 -13 17 -13 12 0 21 -4 21 -10 0 -5 -18 -10
-40 -10 -44 0 -58 -25 -17 -33 12 -2 -11 -5 -51 -6 -64 -1 -73 -3 -70 -18 2
-13 16 -19 53 -24 l50 -5 -50 -5 c-51 -4 -64 -20 -23 -29 13 -2 -8 -7 -46 -10
-43 -3 -71 -10 -74 -17 -2 -8 5 -13 17 -13 12 0 21 -4 21 -10 0 -9 -34 -14
-72 -11 -10 1 -18 -4 -18 -13 0 -9 8 -16 19 -16 11 0 23 -4 26 -10 4 -6 -12
-10 -40 -10 -30 0 -44 -4 -40 -11 4 -6 -2 -5 -13 2 -27 17 -43 2 -18 -17 18
-13 17 -14 -22 -14 -33 0 -40 -3 -36 -15 4 -9 19 -15 41 -15 20 0 32 -4 28
-10 -3 -5 -17 -10 -30 -10 l-23 0 19 -40 c10 -21 19 -44 19 -50 0 -7 16 -44
35 -83 19 -39 35 -81 35 -94 0 -13 5 -23 10 -23 6 0 10 -7 10 -15 0 -8 9 -29
20 -47 11 -18 20 -41 20 -51 0 -10 11 -38 25 -63 14 -25 25 -51 25 -59 0 -8 5
-15 10 -15 6 0 10 -15 10 -34 0 -21 6 -36 15 -40 8 -3 15 -12 15 -20 0 -9 9
-31 20 -51 11 -20 20 -46 20 -59 0 -14 4 -26 8 -28 4 -1 20 -30 36 -63 15 -33
31 -68 37 -77 5 -10 9 -23 9 -29 0 -6 15 -44 33 -83 19 -39 40 -89 47 -111 7
-22 24 -57 37 -77 12 -21 23 -45 23 -53 0 -8 4 -23 9 -33 51 -100 61 -123 61
-141 0 -11 5 -21 10 -21 6 0 10 -11 10 -25 0 -14 5 -25 10 -25 6 0 10 -5 10
-11 0 -6 11 -33 25 -61 14 -27 25 -56 25 -63 0 -7 16 -43 35 -79 19 -37 35
-73 35 -80 0 -8 9 -31 19 -53 23 -45 63 -134 81 -183 8 -19 22 -50 32 -68 10
-18 18 -38 18 -45 0 -7 16 -43 35 -81 19 -39 35 -76 35 -83 0 -8 16 -45 35
-83 19 -38 35 -75 35 -83 0 -7 16 -44 35 -81 19 -38 35 -77 35 -87 0 -11 5
-19 10 -19 6 0 10 -7 10 -15 0 -8 16 -46 35 -84 19 -37 35 -73 35 -79 0 -6 16
-44 35 -83 19 -40 35 -78 35 -84 0 -7 16 -42 35 -79 19 -37 35 -73 35 -80 0
-7 16 -45 35 -85 19 -39 35 -76 35 -81 0 -6 4 -18 9 -28 36 -68 81 -167 81
-177 0 -7 16 -43 35 -81 19 -37 35 -73 35 -79 0 -7 16 -44 35 -84 19 -39 35
-76 35 -81 0 -5 14 -38 30 -72 17 -34 30 -65 30 -69 0 -5 20 -50 44 -101 24
-51 47 -104 51 -118 4 -14 21 -51 36 -82 16 -32 29 -62 29 -68 0 -6 16 -43 35
-83 19 -39 35 -77 35 -84 0 -6 16 -42 35 -79 19 -37 35 -75 35 -85 0 -11 5
-19 10 -19 6 0 10 -7 10 -15 0 -9 16 -47 35 -85 19 -38 35 -74 35 -79 0 -6 16
-43 35 -82 19 -40 35 -78 35 -85 0 -7 16 -43 35 -81 19 -37 35 -73 35 -79 0
-6 16 -43 35 -83 19 -39 35 -76 35 -81 0 -6 4 -18 9 -28 24 -44 81 -170 81
-178 0 -5 20 -49 44 -99 24 -49 57 -119 75 -155 35 -75 77 -148 97 -171 8 -8
14 -20 14 -25 0 -10 104 -141 158 -197 56 -59 174 -153 223 -178 24 -13 46
-26 49 -29 11 -13 82 -50 96 -50 8 0 36 -10 62 -23 26 -13 74 -29 107 -36 33
-7 76 -16 95 -21 168 -42 532 -23 691 35 24 9 55 19 69 22 33 8 119 55 205
112 90 59 355 325 355 356 0 4 11 20 25 37 14 16 25 35 25 42 0 7 8 20 18 29
10 9 28 37 41 62 12 24 26 47 32 50 5 4 9 15 9 26 0 10 5 19 10 19 6 0 10 8
10 18 0 11 9 27 20 37 11 10 20 26 20 35 0 9 16 49 35 89 19 39 35 78 35 85 0
8 20 52 45 99 25 47 45 92 45 100 0 8 16 45 35 83 19 37 35 74 35 81 0 7 8 27
18 45 10 18 31 65 46 103 16 39 43 100 62 137 19 36 34 73 34 81 0 9 16 45 35
81 19 37 35 72 35 79 0 6 19 53 43 102 24 50 50 108 57 130 7 22 16 42 19 45
9 7 41 79 41 91 0 5 20 52 45 105 25 52 45 98 45 102 0 5 16 39 35 78 19 38
35 74 35 79 0 6 16 43 35 82 19 40 35 77 35 83 0 6 4 18 9 28 30 54 81 166 81
176 0 7 16 43 35 82 19 38 35 74 35 80 0 5 16 41 35 80 19 38 35 72 35 77 0 7
23 60 66 153 13 28 24 54 24 58 0 4 16 40 35 80 19 41 35 78 35 83 0 5 16 40
35 79 19 38 35 73 35 78 0 4 13 36 28 70 50 106 62 134 62 141 0 3 20 49 45
101 25 51 45 98 45 103 0 5 14 35 30 66 17 31 30 63 30 70 0 7 16 43 35 81 19
37 35 75 35 84 0 9 13 41 29 71 16 30 44 89 61 133 17 43 40 93 51 112 10 19
19 41 19 49 0 7 15 44 34 82 18 37 44 95 57 128 12 33 33 77 46 97 13 21 23
46 23 56 0 11 16 49 35 86 19 37 35 73 35 80 0 8 15 42 33 77 18 35 39 84 47
109 14 45 54 126 71 145 5 5 9 19 9 31 0 12 16 52 35 88 19 37 35 72 35 79 0
8 20 54 45 103 25 48 45 94 45 101 0 7 4 21 9 31 50 98 61 122 61 133 0 7 20
55 45 106 25 50 45 96 45 101 0 5 16 40 35 78 19 37 35 73 35 80 0 7 10 32 21
56 21 41 34 70 57 128 31 78 66 141 83 150 16 9 19 6 24 -17 4 -16 10 -36 16
-45 5 -10 9 -27 9 -39 0 -11 11 -54 25 -95 14 -41 25 -83 25 -94 0 -10 5 -22
10 -25 6 -3 10 -23 10 -44 0 -21 3 -41 7 -45 5 -4 13 -29 20 -54 6 -26 17 -65
23 -87 6 -22 15 -56 20 -75 4 -19 15 -57 23 -85 7 -27 22 -81 32 -120 10 -38
21 -79 25 -90 4 -11 20 -69 36 -130 15 -60 31 -117 35 -125 7 -13 27 -91 48
-191 4 -19 11 -41 16 -49 4 -7 16 -49 27 -94 31 -131 36 -148 53 -206 23 -78
35 -120 45 -160 5 -19 16 -62 25 -95 9 -33 19 -77 22 -98 3 -20 9 -40 14 -43
5 -3 9 -14 9 -25 0 -10 4 -27 9 -37 5 -9 17 -48 26 -87 22 -93 36 -146 45
-170 5 -11 13 -42 19 -70 14 -59 40 -151 51 -180 4 -11 18 -63 30 -115 12 -52
28 -110 36 -129 8 -18 14 -44 14 -57 0 -14 4 -32 10 -42 5 -9 16 -46 24 -82
23 -99 37 -153 46 -175 5 -11 11 -33 15 -50 6 -34 27 -108 55 -205 11 -36 25
-85 30 -110 35 -144 51 -202 60 -225 5 -11 11 -33 15 -50 9 -46 22 -95 40
-155 23 -78 35 -120 45 -160 11 -44 38 -144 51 -190 6 -19 13 -46 15 -60 3
-14 9 -34 14 -45 5 -11 15 -49 24 -85 9 -36 23 -90 32 -120 21 -73 53 -195 65
-245 5 -22 13 -49 18 -60 6 -11 12 -33 14 -50 3 -16 17 -70 32 -120 15 -49 29
-103 32 -120 2 -16 7 -37 10 -45 4 -8 15 -46 25 -85 11 -38 26 -95 35 -125 8
-30 17 -72 20 -93 3 -20 9 -40 14 -43 5 -3 9 -15 9 -28 0 -12 3 -26 7 -30 9
-9 33 -96 40 -149 3 -20 9 -40 14 -43 5 -3 9 -18 9 -34 0 -16 5 -32 10 -35 6
-3 10 -19 10 -35 0 -16 4 -39 9 -52 5 -13 17 -50 26 -83 9 -33 21 -68 26 -77
5 -10 9 -27 9 -38 0 -21 13 -67 50 -186 11 -34 20 -71 20 -83 0 -12 4 -29 9
-39 5 -9 17 -48 27 -87 9 -38 20 -74 24 -80 4 -5 10 -26 13 -45 3 -19 11 -57
18 -85 l14 -50 1248 -3 c1071 -2 1248 0 1253 12 5 13 -27 146 -45 191 -5 11
-19 65 -31 120 -13 55 -29 112 -36 127 -8 15 -14 37 -14 49 0 13 -5 36 -10 53
-20 59 -72 251 -80 291 -4 22 -14 60 -23 85 -9 25 -17 54 -17 65 0 11 -7 33
-15 49 -8 15 -15 43 -15 62 0 18 -4 36 -10 39 -5 3 -10 17 -10 30 0 13 -4 26
-9 29 -5 3 -11 23 -14 43 -6 43 -25 118 -37 148 -5 11 -14 45 -21 75 -6 30
-15 64 -19 75 -5 11 -13 40 -20 65 -6 25 -16 61 -21 80 -6 19 -14 51 -19 70
-5 19 -16 60 -24 90 -8 30 -22 84 -32 120 -9 36 -20 73 -25 82 -5 10 -9 23 -9
30 0 15 -48 194 -60 223 -4 11 -20 72 -35 135 -15 63 -30 120 -33 125 -6 8
-38 124 -81 295 -5 19 -19 71 -31 115 -11 44 -26 100 -32 125 -5 25 -14 49
-19 54 -5 6 -9 21 -9 35 0 25 -16 83 -31 113 -5 10 -9 30 -9 45 -1 16 -7 39
-15 53 -8 14 -14 37 -15 53 0 15 -4 35 -9 45 -6 9 -17 46 -26 82 -19 77 -42
161 -56 210 -6 19 -14 51 -19 70 -22 88 -32 126 -40 145 -5 11 -14 45 -21 75
-6 30 -15 64 -19 75 -4 11 -20 67 -35 125 -15 58 -30 114 -35 125 -5 11 -15
49 -24 85 -9 36 -23 90 -32 120 -8 30 -28 107 -45 170 -16 63 -33 124 -38 135
-5 11 -19 63 -31 115 -12 52 -28 110 -36 129 -8 18 -14 46 -14 61 0 14 -3 30
-7 34 -7 6 -20 56 -54 191 -5 22 -13 49 -18 60 -5 11 -14 45 -20 75 -7 30 -16
64 -20 75 -11 27 -31 103 -37 140 -3 17 -9 39 -14 50 -4 11 -13 40 -19 65 -7
25 -18 68 -26 95 -16 61 -35 130 -46 170 -28 103 -42 153 -49 175 -8 26 -26
91 -40 150 -5 19 -21 74 -35 121 -14 47 -25 94 -25 105 0 11 -4 24 -8 29 -5 6
-16 46 -26 90 -10 44 -22 89 -26 100 -13 35 -28 88 -45 160 -17 71 -32 124
-45 160 -5 11 -20 70 -35 130 -15 61 -31 114 -36 120 -5 5 -9 25 -9 45 0 20
-4 40 -8 45 -5 6 -15 37 -22 70 -7 33 -19 72 -26 87 -8 15 -14 39 -14 53 0 14
-4 33 -10 43 -5 9 -16 46 -24 82 -8 36 -22 90 -31 120 -9 30 -25 87 -35 125
-10 39 -26 95 -35 125 -8 30 -23 84 -31 120 -9 36 -20 74 -24 85 -4 11 -13 40
-19 65 -32 120 -48 176 -54 190 -3 8 -8 29 -10 45 -3 17 -10 46 -16 65 -6 19
-21 76 -35 125 -13 50 -31 115 -40 145 -9 30 -23 84 -32 120 -9 36 -19 74 -24
85 -5 11 -12 34 -16 50 -4 17 -8 35 -10 40 -17 58 -47 176 -51 200 -2 17 -8
39 -13 50 -4 11 -16 47 -25 80 -9 33 -21 70 -26 83 -5 13 -9 34 -9 48 0 13 -4
32 -9 42 -5 9 -14 35 -19 57 -6 22 -18 63 -26 92 -9 28 -16 63 -16 77 0 14 -4
28 -10 31 -5 3 -10 17 -10 30 0 13 -4 27 -10 30 -5 3 -10 21 -10 38 -1 18 -7
43 -15 57 -8 14 -14 37 -15 53 0 15 -4 35 -9 45 -15 31 -31 88 -31 115 0 14
-4 28 -9 31 -5 4 -17 32 -26 64 -9 31 -21 65 -26 74 -5 10 -9 28 -9 41 0 13
-4 27 -9 33 -16 17 -61 105 -61 119 0 7 -3 15 -7 17 -5 2 -20 28 -35 58 -16
30 -44 73 -63 95 -19 22 -35 43 -35 47 0 12 -29 44 -109 121 -41 40 -84 82
-97 95 -13 12 -27 22 -33 22 -5 0 -16 7 -24 14 -21 21 -85 56 -103 56 -8 0
-17 7 -20 15 -4 8 -14 15 -24 15 -11 0 -22 5 -25 10 -3 6 -19 10 -36 10 -16 0
-29 5 -29 10 0 6 -13 10 -28 10 -15 0 -32 4 -37 9 -6 5 -30 12 -55 15 -25 3
-63 10 -85 16 -22 5 -77 10 -122 10 -49 0 -83 4 -83 10 0 6 -13 10 -30 10 -16
0 -30 -4 -30 -9z m-7140 -4521 c0 -5 -2 -10 -4 -10 -3 0 -8 5 -11 10 -3 6 -1
10 4 10 6 0 11 -4 11 -10z"/>
<path d="M20875 23376 c22 -29 75 -128 165 -306 41 -81 46 -94 59 -140 7 -25
17 -53 22 -62 5 -10 9 -29 9 -43 0 -14 4 -25 8 -25 5 0 16 -28 26 -62 9 -35
22 -71 27 -80 5 -10 9 -34 9 -53 0 -19 4 -35 9 -35 5 0 11 -12 14 -27 14 -72
30 -129 38 -138 5 -5 9 -26 9 -47 0 -21 5 -38 10 -38 6 0 10 -11 10 -25 0 -14
4 -33 9 -43 12 -23 32 -99 38 -145 3 -20 9 -40 14 -43 5 -3 9 -16 9 -29 0 -13
5 -27 10 -30 6 -3 10 -23 10 -43 0 -20 7 -46 15 -56 8 -11 15 -34 15 -52 0
-18 5 -36 10 -39 6 -3 10 -17 10 -30 0 -13 5 -27 10 -30 6 -3 10 -23 10 -43 0
-20 7 -46 15 -56 8 -11 15 -34 15 -52 0 -18 5 -36 10 -39 6 -3 10 -19 10 -36
0 -16 5 -29 10 -29 6 0 10 -17 10 -37 0 -21 7 -47 15 -57 8 -11 15 -34 15 -52
0 -18 5 -36 10 -39 6 -3 10 -19 10 -36 0 -16 5 -29 10 -29 6 0 10 -16 10 -36
0 -19 7 -42 15 -50 8 -9 15 -33 15 -56 l0 -40 37 7 c41 7 52 18 54 50 1 17 2
16 9 -5 4 -14 8 -19 9 -12 1 6 11 12 24 13 12 0 16 3 10 6 -22 8 -14 23 12 23
18 0 25 5 25 20 0 16 7 20 38 21 20 1 29 3 20 6 -31 8 -19 23 17 23 28 0 35 4
35 20 0 11 7 20 15 20 8 0 15 7 15 16 0 11 6 15 19 11 14 -3 17 0 14 14 -3 11
-17 19 -37 22 -17 2 1 5 39 7 39 1 62 4 53 7 -31 8 -19 23 17 23 24 0 35 5 35
15 0 8 7 15 15 15 8 0 15 9 15 20 0 12 7 20 16 20 8 0 22 7 30 15 9 8 26 15
40 15 13 0 24 5 24 10 0 6 -9 10 -20 10 -11 0 -20 5 -20 10 0 6 11 10 24 10
15 0 27 7 30 18 3 9 4 5 2 -10 -2 -15 1 -25 5 -22 5 3 9 14 9 25 0 15 7 19 35
19 19 0 35 5 35 10 0 6 -7 10 -15 10 -21 0 -19 20 3 22 9 1 -8 4 -38 8 l-55 7
80 3 c44 2 85 3 92 3 6 0 9 6 6 13 -3 8 -9 14 -14 14 -5 0 -9 5 -9 10 0 6 14
10 30 10 21 0 30 5 30 16 0 12 7 15 30 12 35 -5 53 11 21 19 -33 9 -24 23 14
23 24 0 35 5 35 15 0 8 7 15 15 15 8 0 15 9 15 20 0 13 7 20 20 20 11 0 20 7
20 15 0 10 11 15 35 15 39 0 48 16 13 23 -20 4 -19 4 5 6 24 1 27 5 28 39 l2
37 7 -40 c4 -22 8 -30 9 -17 1 15 7 22 21 22 11 0 20 7 20 15 0 8 6 15 13 15
7 0 19 9 27 20 8 11 25 20 37 20 25 0 31 15 11 23 -7 3 2 6 20 6 26 1 32 5 32
22 0 16 5 20 19 16 10 -2 25 -1 32 4 10 6 5 9 -16 10 l-30 1 32 14 c18 7 31
19 29 26 -1 7 -1 10 1 6 3 -5 14 -8 24 -8 11 0 17 5 14 10 -3 6 1 10 9 10 10
0 13 6 10 15 -5 11 1 15 20 15 19 0 26 5 26 20 0 16 7 20 38 21 23 1 28 3 15
6 -36 7 -27 23 12 23 28 0 35 4 35 20 0 13 7 20 19 20 11 0 21 9 25 23 9 34 8
35 -21 40 -23 3 -22 4 9 6 32 1 36 -1 32 -21 l-5 -23 10 23 c8 17 19 22 48 23
23 1 29 3 16 6 -36 7 -27 23 12 23 24 0 35 5 35 15 0 8 7 15 15 15 8 0 15 9
15 20 0 11 7 20 15 20 8 0 15 7 15 15 0 10 11 15 35 15 19 0 35 5 35 10 0 6
-7 10 -15 10 -8 0 -15 5 -15 10 0 6 16 10 35 10 25 0 35 4 35 16 0 13 8 15 39
11 30 -3 38 -1 34 9 -3 8 -14 14 -24 14 -32 0 -21 17 16 24 19 4 35 11 35 16
0 6 9 10 20 10 11 0 20 5 20 10 0 6 -9 10 -20 10 -11 0 -20 5 -20 11 0 7 12 9
31 7 25 -4 33 -1 37 14 3 13 14 18 38 18 19 0 34 5 34 10 0 6 -7 10 -15 10 -8
0 -15 5 -15 10 0 6 16 10 35 10 24 0 35 5 35 15 0 8 7 15 15 15 8 0 15 7 15
15 0 11 -13 15 -52 17 -46 1 -43 2 22 7 52 4 74 10 72 19 -1 7 9 12 28 12 32
0 41 16 13 23 -16 4 -16 5 -1 6 9 0 19 11 21 24 l4 22 2 -22 c1 -15 7 -23 20
-23 15 0 18 5 13 22 -4 17 -2 20 11 15 12 -5 17 -1 17 13 0 13 7 20 20 20 13
0 20 7 20 20 0 16 7 20 35 20 39 0 48 16 13 23 -14 3 -9 5 15 6 30 1 37 5 37
21 0 15 7 20 28 22 15 1 -7 4 -48 8 l-75 6 72 2 c48 1 76 7 87 17 8 8 22 15
30 15 9 0 16 4 16 9 0 5 8 12 18 14 16 4 16 5 0 6 -33 2 -18 21 16 21 25 0 35
5 39 20 3 14 14 20 34 21 16 1 21 3 11 6 -22 5 -24 23 -3 23 9 0 15 10 16 23
1 21 1 21 9 -3 4 -14 8 -19 9 -12 1 7 6 10 11 7 6 -3 10 1 10 9 0 9 7 16 15
16 8 0 15 7 15 15 0 8 9 15 20 15 13 0 20 7 20 20 0 17 7 20 43 21 29 2 34 3
15 6 -40 6 -34 23 7 23 24 0 35 5 35 15 0 8 8 15 19 15 14 0 21 10 26 38 6 31
9 34 15 17 7 -16 9 -17 9 -3 1 12 12 18 39 21 20 2 -833 4 -1896 5 l-1933 2
26 -34z m3573 -113 c-10 -2 -26 -2 -35 0 -10 3 -2 5 17 5 19 0 27 -2 18 -5z
m-791 -645 c-3 -8 -6 -5 -6 6 -1 11 2 17 5 13 3 -3 4 -12 1 -19z m-799 -585
c-15 -2 -42 -2 -60 0 -18 2 -6 4 27 4 33 0 48 -2 33 -4z"/>
<path d="M21653 21053 c9 -2 25 -2 35 0 9 3 1 5 -18 5 -19 0 -27 -2 -17 -5z"/>
<path d="M13036 19803 c-11 -11 -6 -23 9 -23 8 0 15 4 15 9 0 13 -16 22 -24
14z"/>
<path d="M12934 19759 c-10 -17 13 -36 27 -22 12 12 4 33 -11 33 -5 0 -12 -5
-16 -11z"/>
<path d="M12898 19698 c9 -9 15 -9 24 0 9 9 7 12 -12 12 -19 0 -21 -3 -12 -12z"/>
<path d="M12800 19660 c0 -5 7 -10 15 -10 8 0 15 5 15 10 0 6 -7 10 -15 10 -8
0 -15 -4 -15 -10z"/>
<path d="M12675 19520 c3 -5 8 -10 11 -10 2 0 4 5 4 10 0 6 -5 10 -11 10 -5 0
-7 -4 -4 -10z"/>
<path d="M12532 19429 c2 -6 8 -10 13 -10 5 0 11 4 13 10 2 6 -4 11 -13 11 -9
0 -15 -5 -13 -11z"/>
<path d="M12440 19380 c0 -5 7 -10 15 -10 8 0 15 5 15 10 0 6 -7 10 -15 10 -8
0 -15 -4 -15 -10z"/>
<path d="M12480 19380 c0 -5 7 -10 15 -10 8 0 15 5 15 10 0 6 -7 10 -15 10 -8
0 -15 -4 -15 -10z"/>
<path d="M12440 19335 c0 -8 7 -15 15 -15 8 0 15 7 15 15 0 8 -7 15 -15 15 -8
0 -15 -7 -15 -15z"/>
<path d="M12300 19240 c0 -5 7 -10 15 -10 8 0 15 5 15 10 0 6 -7 10 -15 10 -8
0 -15 -4 -15 -10z"/>
<path d="M12210 19155 c0 -8 5 -15 10 -15 6 0 10 7 10 15 0 8 -4 15 -10 15 -5
0 -10 -7 -10 -15z"/>
<path d="M12072 19108 c2 -5 8 -9 13 -9 5 0 11 4 13 9 1 5 -4 9 -13 9 -9 0
-14 -4 -13 -9z"/>
<path d="M11980 19015 c0 -8 7 -15 15 -15 8 0 15 7 15 15 0 8 -7 15 -15 15 -8
0 -15 -7 -15 -15z"/>
<path d="M11847 18934 c-8 -8 1 -24 14 -24 5 0 9 7 9 15 0 15 -12 20 -23 9z"/>
<path d="M11800 18880 c0 -5 7 -10 15 -10 8 0 15 5 15 10 0 6 -7 10 -15 10 -8
0 -15 -4 -15 -10z"/>
<path d="M11757 18843 c-12 -11 -8 -23 8 -23 8 0 15 7 15 15 0 16 -12 20 -23
8z"/>
<path d="M11703 18788 c2 -7 10 -13 17 -13 7 0 15 6 18 13 2 7 -5 12 -18 12
-13 0 -20 -5 -17 -12z"/>
<path d="M11620 18739 c0 -5 5 -7 10 -4 6 3 10 8 10 11 0 2 -4 4 -10 4 -5 0
-10 -5 -10 -11z"/>
<path d="M11480 18605 c0 -8 5 -15 10 -15 6 0 10 7 10 15 0 8 -4 15 -10 15 -5
0 -10 -7 -10 -15z"/>
<path d="M11387 18574 c-13 -13 -7 -24 14 -24 11 0 19 5 17 12 -5 14 -22 21
-31 12z"/>
<path d="M11340 18515 c0 -8 7 -15 15 -15 8 0 15 7 15 15 0 8 -7 15 -15 15 -8
0 -15 -7 -15 -15z"/>
<path d="M11250 18463 c0 -8 5 -13 12 -11 18 6 21 25 3 25 -8 0 -15 -7 -15
-14z"/>
<path d="M10660 18015 c0 -8 5 -15 10 -15 6 0 10 7 10 15 0 8 -4 15 -10 15 -5
0 -10 -7 -10 -15z"/>
<path d="M10700 18015 c0 -8 7 -15 15 -15 8 0 15 7 15 15 0 8 -7 15 -15 15 -8
0 -15 -7 -15 -15z"/>
<path d="M10605 17971 c-7 -12 12 -24 25 -16 11 7 4 25 -10 25 -5 0 -11 -4
-15 -9z"/>
<path d="M10660 17970 c0 -6 10 -15 23 -20 24 -9 21 -10 -83 -14 -47 -1 -49
-30 -3 -32 20 -1 30 2 26 9 -3 6 -1 7 5 3 24 -14 11 -26 -28 -26 -29 0 -40 -4
-40 -15 0 -8 9 -15 20 -15 11 0 20 -4 20 -10 0 -6 -28 -10 -65 -10 -37 0 -65
-4 -65 -10 0 -5 10 -10 22 -10 34 0 8 -18 -31 -22 -43 -4 -52 -25 -14 -31 15
-2 -2 -5 -39 -6 -61 -1 -68 -3 -68 -21 0 -17 7 -20 40 -20 22 0 40 -4 40 -10
0 -5 -18 -10 -40 -10 -22 0 -40 -4 -40 -10 0 -5 7 -10 15 -10 8 0 15 -4 15
-10 0 -6 -28 -10 -65 -10 -57 0 -65 -2 -65 -19 0 -10 -9 -21 -20 -24 -27 -7
-25 -25 3 -37 16 -6 3 -9 -51 -9 -54 -1 -73 -4 -70 -13 3 -7 14 -14 26 -16 40
-6 23 -22 -23 -22 -25 0 -45 -4 -45 -10 0 -5 18 -10 39 -10 22 0 43 -4 46 -10
4 -6 -27 -10 -84 -10 -73 0 -91 -3 -91 -14 0 -11 14 -16 48 -19 l47 -3 -47 -2
c-41 -2 -48 -5 -48 -22 0 -13 7 -20 20 -20 11 0 20 -4 20 -10 0 -6 -28 -10
-65 -10 -37 0 -65 -4 -65 -10 0 -5 7 -10 15 -10 8 0 15 -4 15 -10 0 -5 -18
-10 -40 -10 -43 0 -54 -18 -17 -28 15 -5 1 -9 -42 -12 -67 -5 -94 -25 -50 -38
21 -6 18 -7 -15 -12 -56 -7 -60 -30 -5 -30 33 0 40 -3 31 -12 -6 -6 -34 -11
-62 -11 -27 1 -50 -3 -50 -8 0 -5 7 -9 15 -9 8 0 15 -6 15 -13 0 -9 -12 -11
-39 -9 -44 4 -67 -15 -30 -26 17 -5 5 -8 -41 -12 -51 -4 -66 -9 -68 -22 -2
-13 3 -18 17 -18 12 0 21 -4 21 -10 0 -5 -18 -10 -40 -10 -22 0 -40 -4 -40
-10 0 -5 6 -10 14 -10 8 0 16 -6 19 -13 4 -10 -3 -12 -24 -9 -16 2 -37 1 -46
-3 -16 -6 -15 -8 7 -18 24 -10 23 -11 -20 -16 -50 -7 -62 -30 -20 -42 16 -4
-1 -7 -47 -8 -46 -1 -73 -5 -73 -12 0 -6 9 -13 20 -16 34 -9 22 -23 -20 -23
-44 0 -53 -13 -17 -26 16 -6 3 -9 -47 -11 -62 -4 -68 -6 -63 -23 3 -11 1 -23
-4 -26 -14 -8 -5 -29 11 -29 7 0 15 -4 17 -10 2 -6 -22 -10 -59 -10 -58 0 -63
-2 -66 -22 -2 -15 -10 -23 -23 -23 -10 0 -19 -7 -19 -15 0 -8 9 -15 20 -15 11
0 20 -3 20 -7 0 -5 -29 -6 -65 -5 -60 3 -65 2 -65 -16 0 -13 8 -22 23 -25 12
-2 1 -5 -25 -6 -35 -1 -48 -5 -48 -16 0 -11 12 -15 46 -15 27 0 43 -4 39 -10
-3 -5 -42 -10 -86 -10 -46 0 -79 -4 -79 -10 0 -5 7 -10 15 -10 21 0 19 -5 -10
-34 -17 -17 -38 -26 -65 -28 -45 -2 -56 -25 -17 -36 18 -6 15 -8 -17 -12 -38
-5 -64 -30 -32 -30 9 0 16 -4 16 -10 0 -5 -28 -10 -62 -12 -64 -3 -91 -23 -41
-31 18 -2 10 -5 -20 -6 -40 -1 -48 -4 -45 -18 2 -13 16 -20 48 -24 41 -5 39
-6 -22 -7 -68 -2 -99 -18 -57 -30 20 -6 16 -8 -20 -12 -49 -5 -70 -30 -27 -30
14 0 26 -4 26 -10 0 -5 -28 -10 -62 -12 -38 -2 -63 -8 -66 -15 -2 -7 3 -13 12
-13 9 0 16 -4 16 -10 0 -5 -18 -10 -40 -10 -29 0 -40 -4 -40 -15 0 -8 10 -16
23 -17 12 0 2 -4 -23 -7 -31 -4 -45 -11 -45 -21 0 -8 -10 -19 -22 -25 -29 -12
-30 -35 -1 -35 12 0 18 -3 15 -7 -4 -3 -44 -7 -89 -7 -67 -1 -83 -4 -83 -16 0
-10 14 -17 45 -21 l45 -6 -42 -1 c-49 -2 -65 -18 -31 -31 18 -8 9 -10 -40 -10
-39 -1 -61 -5 -57 -11 3 -6 -1 -7 -9 -4 -9 3 -16 1 -16 -5 0 -6 19 -11 45 -11
25 0 45 -4 45 -10 0 -5 -18 -10 -40 -10 -29 0 -40 -4 -40 -15 0 -8 9 -15 20
-15 11 0 20 -4 20 -10 0 -6 -28 -10 -64 -10 -55 0 -64 -3 -69 -20 -3 -12 -14
-20 -26 -20 -12 0 -21 -6 -21 -15 0 -10 10 -15 28 -15 21 0 24 -2 12 -10 -8
-5 -41 -10 -72 -10 -44 0 -58 -4 -58 -14 0 -8 8 -17 18 -19 9 -3 0 -5 -20 -6
-27 -1 -38 -6 -38 -16 0 -10 11 -15 35 -15 19 0 35 -4 35 -10 0 -5 -24 -10
-54 -10 l-53 0 -16 -42 c-8 -24 -18 -58 -22 -75 -4 -18 -11 -35 -16 -38 -5 -4
-9 -22 -9 -41 0 -20 -6 -37 -13 -40 -8 -3 -14 -19 -15 -36 0 -17 -6 -36 -11
-41 -6 -6 -11 -28 -11 -49 0 -21 -4 -38 -10 -38 -5 0 -10 -18 -10 -39 0 -22
-4 -43 -10 -46 -5 -3 -10 -16 -10 -29 0 -12 -7 -31 -15 -42 -8 -10 -15 -36
-15 -56 0 -21 -4 -38 -10 -38 -5 0 -10 -17 -10 -37 0 -21 -7 -47 -15 -57 -8
-11 -15 -30 -15 -42 0 -13 -4 -26 -10 -29 -5 -3 -10 -24 -10 -46 0 -21 -4 -39
-10 -39 -5 0 -10 -18 -10 -39 0 -22 -4 -43 -10 -46 -5 -3 -10 -19 -10 -35 0
-16 -4 -31 -9 -35 -6 -3 -13 -26 -17 -50 -3 -25 -10 -48 -15 -51 -5 -3 -9 -20
-9 -39 0 -19 -4 -37 -10 -40 -5 -3 -10 -19 -10 -35 0 -16 -4 -31 -9 -34 -5 -3
-12 -26 -15 -51 -4 -25 -11 -45 -17 -45 -5 0 -9 -18 -9 -39 0 -22 -4 -43 -10
-46 -5 -3 -10 -19 -10 -35 0 -16 -4 -31 -9 -34 -5 -3 -12 -26 -15 -51 -4 -25
-11 -45 -17 -45 -5 0 -9 -20 -9 -45 0 -25 -4 -45 -10 -45 -5 0 -10 -15 -10
-34 0 -19 -4 -38 -10 -41 -5 -3 -10 -19 -10 -34 0 -15 -7 -36 -15 -47 -8 -10
-15 -36 -15 -56 0 -20 -4 -40 -10 -43 -5 -3 -10 -19 -10 -35 0 -16 -4 -32 -10
-35 -5 -3 -10 -19 -10 -34 0 -15 -7 -36 -15 -47 -8 -10 -15 -31 -15 -46 0 -15
-4 -30 -10 -33 -5 -3 -10 -24 -10 -45 0 -21 -4 -41 -9 -44 -5 -3 -11 -20 -14
-38 -5 -33 -22 -88 -38 -120 -5 -10 -9 -33 -9 -52 0 -19 -4 -38 -10 -41 -5 -3
-10 -21 -10 -39 0 -17 -4 -36 -9 -41 -5 -6 -16 -44 -26 -85 -10 -41 -21 -79
-25 -85 -4 -5 -10 -26 -13 -45 -3 -19 -10 -51 -16 -70 -5 -19 -16 -57 -23 -85
-6 -27 -15 -52 -19 -55 -3 -3 -9 -21 -12 -40 -13 -75 -20 -105 -27 -115 -4 -5
-11 -29 -15 -52 -4 -24 -11 -43 -16 -43 -5 0 -9 -18 -9 -39 0 -22 -4 -43 -10
-46 -5 -3 -10 -19 -10 -35 0 -16 -4 -32 -10 -35 -5 -3 -10 -21 -10 -38 0 -18
-6 -41 -14 -52 -7 -11 -16 -36 -19 -55 -3 -19 -9 -50 -13 -67 l-6 -33 1240 0
1240 0 6 28 c4 15 11 45 16 67 10 48 49 182 60 210 5 11 11 34 14 50 9 55 17
90 26 110 5 11 14 38 20 60 11 36 16 60 35 150 4 17 10 39 14 50 22 57 41 126
41 148 0 14 5 29 10 32 6 3 10 19 10 35 0 16 5 32 10 35 6 3 10 22 10 41 0 19
4 42 9 52 15 26 41 118 41 141 0 12 5 21 10 21 6 0 10 18 10 39 0 22 5 43 10
46 6 3 10 15 10 26 0 23 27 115 41 141 5 10 9 33 9 52 0 19 5 38 10 41 6 3 10
16 10 28 1 24 33 123 44 134 3 3 6 23 6 44 0 21 5 41 10 44 6 3 10 21 10 40 0
19 5 37 10 40 6 3 10 19 10 34 0 15 3 31 7 35 9 8 31 90 40 144 3 18 9 35 14
38 5 3 9 20 9 39 0 19 5 37 10 40 6 3 10 18 10 32 0 25 25 111 41 145 5 10 9
29 9 42 0 14 5 28 10 31 6 3 10 24 10 45 0 21 5 42 10 45 6 3 10 16 10 28 0
12 7 35 15 51 8 15 15 41 15 57 0 16 5 29 10 29 6 0 10 20 10 45 0 25 5 45 10
45 6 0 10 10 10 23 0 22 25 107 41 139 5 10 9 34 9 53 0 19 5 35 10 35 6 0 10
12 10 27 0 15 4 40 9 57 5 17 18 60 27 96 10 36 21 69 26 74 4 6 8 25 8 42 0
18 5 36 10 39 6 3 10 17 10 31 0 29 29 124 41 138 5 6 9 27 9 47 0 21 5 41 10
44 6 3 10 18 10 32 0 28 13 77 36 131 8 18 14 44 14 57 0 13 5 27 10 30 6 3
10 24 10 45 0 21 5 42 10 45 6 3 10 17 10 31 0 13 4 32 9 42 10 21 31 95 38
140 3 18 9 35 14 38 5 3 9 21 9 40 0 19 5 34 10 34 6 0 10 18 10 39 0 22 5 43
10 46 6 3 10 18 10 33 0 15 7 40 15 56 8 15 15 39 15 52 0 13 5 24 10 24 6 0
10 20 10 44 0 25 4 47 9 50 5 3 11 20 14 38 5 33 22 88 38 120 5 10 9 33 9 52
0 19 4 37 9 40 5 3 11 23 14 43 3 21 10 56 17 78 6 22 17 61 23 88 6 26 15 47
19 47 4 0 8 18 8 39 0 22 5 43 10 46 6 3 10 19 10 35 0 16 5 32 10 35 6 3 10
21 10 39 0 19 7 47 15 62 8 16 15 41 15 57 0 15 5 27 10 27 6 0 10 16 10 35 0
19 5 35 10 35 6 0 10 20 10 44 0 25 5 48 10 51 6 3 10 24 10 45 0 21 5 40 11
42 7 2 12 15 13 28 1 14 6 32 11 40 5 8 8 29 6 46 -1 17 4 38 11 45 7 8 15 30
17 49 1 19 8 41 13 48 8 9 2 12 -26 12 -20 0 -36 -5 -36 -10z"/>
<path d="M10520 17875 c0 -8 5 -15 10 -15 6 0 10 7 10 15 0 8 -4 15 -10 15 -5
0 -10 -7 -10 -15z"/>
<path d="M10428 17823 c6 -2 18 -2 25 0 6 3 1 5 -13 5 -14 0 -19 -2 -12 -5z"/>
<path d="M10385 17780 c3 -5 10 -10 16 -10 5 0 9 5 9 10 0 6 -7 10 -16 10 -8
0 -12 -4 -9 -10z"/>
<path d="M10290 17690 c0 -5 7 -10 15 -10 8 0 15 5 15 10 0 6 -7 10 -15 10 -8
0 -15 -4 -15 -10z"/>
<path d="M10205 17650 c-3 -5 -1 -10 4 -10 6 0 11 5 11 10 0 6 -2 10 -4 10 -3
0 -8 -4 -11 -10z"/>
<path d="M10154 17606 c-8 -22 3 -33 18 -18 9 9 9 15 0 24 -9 9 -13 7 -18 -6z"/>
<path d="M10060 17555 c0 -8 5 -15 10 -15 6 0 10 7 10 15 0 8 -4 15 -10 15 -5
0 -10 -7 -10 -15z"/>
<path d="M9930 17430 c-12 -7 -12 -12 -3 -21 15 -15 26 -7 21 15 -2 11 -7 13
-18 6z"/>
<path d="M9830 17370 c0 -5 7 -10 15 -10 8 0 15 5 15 10 0 6 -7 10 -15 10 -8
0 -15 -4 -15 -10z"/>
<path d="M9790 17330 c0 -5 7 -10 15 -10 8 0 15 5 15 10 0 6 -7 10 -15 10 -8
0 -15 -4 -15 -10z"/>
<path d="M9700 17280 c0 -11 5 -20 10 -20 6 0 10 9 10 20 0 11 -4 20 -10 20
-5 0 -10 -9 -10 -20z"/>
<path d="M9610 17190 c0 -5 5 -10 10 -10 6 0 10 5 10 10 0 6 -4 10 -10 10 -5
0 -10 -4 -10 -10z"/>
<path d="M9464 17109 c-10 -17 13 -36 27 -22 12 12 4 33 -11 33 -5 0 -12 -5
-16 -11z"/>
<path d="M9425 17050 c4 -6 11 -8 16 -5 14 9 11 15 -7 15 -8 0 -12 -5 -9 -10z"/>
<path d="M9370 17010 c0 -5 7 -10 15 -10 8 0 15 5 15 10 0 6 -7 10 -15 10 -8
0 -15 -4 -15 -10z"/>
<path d="M9330 16965 c0 -8 7 -15 15 -15 8 0 15 7 15 15 0 8 -7 15 -15 15 -8
0 -15 -7 -15 -15z"/>
<path d="M9242 16919 c2 -6 8 -10 13 -10 5 0 11 4 13 10 2 6 -4 11 -13 11 -9
0 -15 -5 -13 -11z"/>
<path d="M9190 16870 c0 -5 7 -10 15 -10 8 0 15 5 15 10 0 6 -7 10 -15 10 -8
0 -15 -4 -15 -10z"/>
<path d="M9105 16790 c-4 -6 -3 -16 3 -22 6 -6 12 -6 17 2 4 6 3 16 -3 22 -6
6 -12 6 -17 -2z"/>
<path d="M9010 16730 c0 -5 7 -10 15 -10 8 0 15 5 15 10 0 6 -7 10 -15 10 -8
0 -15 -4 -15 -10z"/>
<path d="M8970 16685 c0 -8 5 -15 10 -15 6 0 10 7 10 15 0 8 -4 15 -10 15 -5
0 -10 -7 -10 -15z"/>
<path d="M8877 16653 c-12 -11 -8 -23 8 -23 8 0 15 7 15 15 0 16 -12 20 -23 8z"/>
<path d="M8730 16505 c0 -8 7 -15 15 -15 8 0 15 7 15 15 0 8 -7 15 -15 15 -8
0 -15 -7 -15 -15z"/>
<path d="M8645 16470 c-4 -6 -3 -16 3 -22 6 -6 12 -6 17 2 4 6 3 16 -3 22 -6
6 -12 6 -17 -2z"/>
<path d="M8600 16415 c0 -9 5 -15 11 -13 6 2 11 8 11 13 0 5 -5 11 -11 13 -6
2 -11 -4 -11 -13z"/>
<path d="M8510 16365 c0 -8 5 -15 10 -15 6 0 10 7 10 15 0 8 -4 15 -10 15 -5
0 -10 -7 -10 -15z"/>
<path d="M8415 16281 c-7 -12 12 -24 25 -16 11 7 4 25 -10 25 -5 0 -11 -4 -15
-9z"/>
<path d="M8370 16230 c0 -5 7 -10 15 -10 8 0 15 5 15 10 0 6 -7 10 -15 10 -8
0 -15 -4 -15 -10z"/>
<path d="M8280 16186 c0 -9 7 -16 16 -16 9 0 14 5 12 12 -6 18 -28 21 -28 4z"/>
<path d="M8233 16138 c2 -7 10 -13 17 -13 7 0 15 6 18 13 2 7 -5 12 -18 12
-13 0 -20 -5 -17 -12z"/>
<path d="M8195 16090 c3 -5 8 -10 11 -10 2 0 4 5 4 10 0 6 -5 10 -11 10 -5 0
-7 -4 -4 -10z"/>
<path d="M8156 16051 c-4 -7 -5 -15 -2 -18 9 -9 19 4 14 18 -4 11 -6 11 -12 0z"/>
<path d="M8010 15949 c0 -5 5 -7 10 -4 6 3 10 8 10 11 0 2 -4 4 -10 4 -5 0
-10 -5 -10 -11z"/>
<path d="M7910 15865 c0 -8 7 -15 15 -15 8 0 15 7 15 15 0 8 -7 15 -15 15 -8
0 -15 -7 -15 -15z"/>
<path d="M7820 15820 c0 -5 7 -10 15 -10 8 0 15 5 15 10 0 6 -7 10 -15 10 -8
0 -15 -4 -15 -10z"/>
<path d="M7775 15781 c-7 -12 12 -24 25 -16 11 7 4 25 -10 25 -5 0 -11 -4 -15
-9z"/>
<path d="M7696 15731 c-4 -7 -5 -15 -2 -18 9 -9 19 4 14 18 -4 11 -6 11 -12 0z"/>
</g>
</svg>
